<svg xmlns="http://www.w3.org/2000/svg" viewBox="0 0 260 320" role="img" aria-labelledby="title desc">
  <title id="title">Muscle training visual</title>
  <desc id="desc">A stylized athlete silhouette with highlighted muscle groups.</desc>
  <rect x="0" y="0" width="260" height="320" rx="26" fill="#18201c"/>
  <circle cx="130" cy="48" r="28" fill="#f9fff5"/>
  <path d="M104 82c13 9 39 9 52 0l16 40-12 78H100l-12-78 16-40Z" fill="#f9fff5"/>
  <path d="M93 111 42 150l13 26 43-25 8-40Z" fill="#9be15d"/>
  <path d="m167 111 51 39-13 26-43-25-8-40Z" fill="#2bb7a8"/>
  <path d="M102 206h48l-9 86h-31l-8-86Z" fill="#ff6f4e"/>
  <path d="M158 206h-48l9 86h31l8-86Z" fill="#f2b84b" opacity=".86"/>
  <path d="M104 120h52l-8 38h-36l-8-38Z" fill="#7c3aed" opacity=".82"/>
  <path d="M104 83c13 9 39 9 52 0M100 200h60M86 122h88" fill="none" stroke="#111714" stroke-width="5" stroke-linecap="round" opacity=".45"/>
  <g fill="#111714" opacity=".55">
    <circle cx="130" cy="48" r="5"/>
    <path d="M118 60c8 5 16 5 24 0" fill="none" stroke="#111714" stroke-width="4" stroke-linecap="round"/>
  </g>
</svg>
